<?xml version="1.0" encoding="UTF-8"?>
<!DOCTYPE svg PUBLIC "-//W3C//DTD SVG 1.1//EN" "http://www.w3.org/Graphics/SVG/1.1/DTD/svg11.dtd">
<!-- Creator: CorelDRAW X7 -->
<svg xmlns="http://www.w3.org/2000/svg" xml:space="preserve" width="19.2222cm" height="7.92701cm" version="1.1" style="shape-rendering:geometricPrecision; text-rendering:geometricPrecision; image-rendering:optimizeQuality; fill-rule:evenodd; clip-rule:evenodd"
viewBox="0 0 19983 8241"
 xmlns:xlink="http://www.w3.org/1999/xlink">
 <defs>
  <style type="text/css">
   <![CDATA[
    .fil2 {fill:#A0D9F6}
    .fil0 {fill:#005CAA}
    .fil1 {fill:#FEFEFE;fill-rule:nonzero}
    .fil3 {fill:#A0D9F6;fill-rule:nonzero}
   ]]>
  </style>
 </defs>
 <g id="Layer_x0020_1">
  <metadata id="CorelCorpID_0Corel-Layer"/>
  <path class="fil0" d="M1725 0l4791 0c949,0 1725,776 1725,1725l0 4791c0,949 -776,1725 -1725,1725l-4791 0c-949,0 -1725,-776 -1725,-1725l0 -4791c0,-949 776,-1725 1725,-1725z"/>
  <path class="fil1" d="M1206 6749c-12,-59 -47,-106 -102,-144 -55,-37 -119,-56 -192,-56 -82,0 -149,24 -199,70 -51,46 -75,106 -75,181 0,76 28,136 77,175 51,39 91,57 154,80l43 13c19,6 33,12 41,15l29 11c23,9 30,18 30,28 0,18 -30,32 -66,32 -48,0 -87,-25 -96,-58l-237 41c17,66 55,120 116,160 61,41 133,61 216,61 89,0 161,-23 216,-70 55,-47 83,-110 83,-188 0,-76 -27,-136 -75,-173 -48,-40 -91,-59 -151,-78 -23,-8 -68,-20 -87,-26l-32 -11c-21,-9 -29,-19 -29,-31 0,-17 19,-28 46,-28 28,0 54,13 60,34l230 -38zm316 598l0 -786 -233 0 0 786 233 0zm530 0l0 -358 151 284 154 0 152 -284 0 358 227 0 0 -786 -227 0 -228 406 -229 -406 -227 0 0 786 227 0zm1152 -798c-118,0 -218,40 -297,117 -80,78 -121,173 -121,288 0,114 41,211 121,288 79,78 179,116 297,116 119,0 218,-38 298,-116 80,-77 120,-174 120,-288 0,-115 -40,-210 -120,-288 -80,-77 -179,-117 -298,-117zm-175 404c0,-51 17,-94 51,-128 33,-35 75,-53 124,-53 51,0 92,18 126,53 34,34 51,77 51,128 0,51 -17,95 -51,130 -34,35 -75,52 -126,52 -50,0 -92,-17 -126,-52 -32,-35 -49,-79 -49,-130zm867 394l0 -388 207 272 89 116 207 0 0 -786 -223 0 0 389 -295 -389 -208 0 0 786 223 0zm1008 -303l-116 0 59 -149 57 149zm359 303l-321 -786 -193 0 -321 786 242 0 39 -101 272 0 40 101 242 0zm28 -786l0 786 581 0 0 -214 -348 0 0 -572 -233 0zm859 786l0 -786 -233 0 0 786 233 0zm632 -598c-12,-59 -47,-106 -102,-144 -55,-37 -119,-56 -192,-56 -82,0 -149,24 -199,70 -51,46 -75,106 -75,181 0,76 28,136 77,175 51,39 91,57 154,80l43 13c19,6 33,12 41,15l29 11c23,9 30,18 30,28 0,18 -30,32 -66,32 -48,0 -87,-25 -96,-58l-237 41c17,66 55,120 116,160 61,41 133,61 216,61 89,0 161,-23 216,-70 55,-47 83,-110 83,-188 0,-76 -27,-136 -75,-173 -48,-40 -91,-59 -151,-78 -23,-8 -68,-20 -87,-26l-32 -11c-21,-9 -29,-19 -29,-31 0,-17 19,-28 46,-28 28,0 54,13 60,34l230 -38zm486 295l-115 0 58 -149 57 149zm360 303l-321 -786 -194 0 -321 786 243 0 39 -101 272 0 39 101 243 0z"/>
  <g id="_638420128">
   <path class="fil2" d="M2285 834l0 0c1054,0 1917,863 1917,1917l0 3651 -327 0 -231 0c-633,0 -1151,-518 -1151,-1151l0 -1512c272,-221 446,-558 446,-936 0,-665 -539,-1204 -1205,-1204 -457,0 -855,255 -1059,631l-235 0c229,-803 971,-1396 1845,-1396zm-595 1753l0 6 195 0 0 -6c0,-42 34,-76 76,-76l62 0 261 0c79,0 143,-64 143,-142l0 -53 -428 0c-5,0 -11,1 -16,1 -7,0 22,-1 -22,-1 -45,0 -156,37 -206,95 -1,1 -2,2 -3,3l-1 2c-1,1 -2,2 -3,4l-1 1c-1,1 -2,2 -3,3l-1 2 -3 4 -1 1 -2 4 -1 1c-1,2 -2,3 -3,4l-1 2c-1,2 -2,3 -3,4l0 1c-1,2 -2,3 -3,5l-1 1c0,1 -1,3 -2,4l-1 2c-1,1 -1,3 -2,4l-1 1c-1,2 -1,4 -2,5l-1 2c-1,1 -1,3 -2,4l-1 1c0,2 -1,4 -2,5l0 1c-1,2 -1,3 -2,5l-1 1c0,2 -1,4 -2,6l0 0 0 0 0 0c-1,2 -1,4 -2,6l0 1c-1,2 -1,3 -2,5l0 1c-1,2 -1,4 -2,6l0 0c-1,2 -1,4 -2,6l0 1c0,2 -1,4 -1,6l0 0 0 0c-1,2 -1,4 -2,6l0 1c0,2 -1,4 -1,6l0 1c0,2 -1,4 -1,6l0 0c-1,4 -1,9 -2,13l0 1c0,2 0,4 0,6l0 1c-1,2 -1,4 -1,6l0 1c0,2 0,4 0,6l0 0c0,3 0,5 0,7zm-553 382l0 -70 0 -52 0 -79 0 -181c0,-42 -34,-76 -76,-76l-260 0 -235 0c-23,94 -36,192 -36,292 0,579 409,1063 953,1178l0 418c0,380 -310,690 -689,690l-361 0 -65 0 0 -2338c0,-149 17,-295 50,-435l204 0 11 0 428 0c3,0 5,0 7,0l1 0c2,1 4,1 6,1l1 0c2,0 4,0 6,0l1 0c2,0 4,1 6,1l0 0c5,0 9,1 14,1l0 1c2,0 4,0 6,1l1 0c2,0 4,0 6,1l0 0c2,0 4,1 6,1l1 0 0 0c2,1 4,1 6,2l1 0c1,1 3,1 5,2l1 0c2,0 4,1 6,1l0 1c2,0 4,1 6,1l1 1c2,0 3,1 5,2l0 0 1 0 0 0c2,1 3,1 5,2l1 0c2,1 4,2 6,3l0 0c2,1 4,1 5,2l1 1c2,0 3,1 5,2l2 0c1,1 3,2 4,3l1 0c2,1 3,2 5,3l1 1c2,0 3,1 5,2l1 1c1,1 3,1 4,2l1 1c2,1 3,2 4,2l2 2c2,1 3,1 4,2l2 1 4 3 1 1 4 3 1 1c1,1 3,2 4,3l1 0c1,2 3,3 4,4l1 1c2,1 3,2 4,3 58,50 94,123 94,205 0,8 0,15 -1,22 1,6 1,11 1,16l0 344c0,41 34,75 76,75l62 0 52 0c79,0 143,65 143,143l0 52 -219 0c-5,0 -10,0 -16,-1 -7,1 -14,1 -22,1 -82,0 -155,-36 -205,-94 -1,-1 -2,-2 -3,-3l-1 -2c-1,-1 -3,-3 -4,-4l0 -1c-1,-1 -2,-2 -3,-4l-1 -1 -3 -4 -1 -1 -3 -4 -1 -2c-1,-1 -1,-2 -2,-3l-2 -2c-1,-2 -1,-3 -2,-5l-1 0c-1,-2 -2,-3 -2,-5l-1 -1c-1,-2 -2,-3 -3,-5l0 -1c-1,-1 -2,-3 -3,-4l0 -2c-1,-1 -2,-3 -3,-4l0 -2c-1,-1 -2,-3 -3,-5l0 -1c-1,-1 -1,-3 -2,-5l-1 0c0,-2 -1,-4 -2,-5l0 -2c-1,-1 -1,-3 -2,-5l0 0 0 0 0 -1c-1,-1 -2,-3 -2,-5l-1 -1c0,-2 -1,-4 -1,-5l-1 -1c0,-2 -1,-4 -1,-6l0 -1c-1,-1 -2,-3 -2,-5l0 -1c-1,-2 -1,-4 -2,-6l0 0 0 -1c0,-2 -1,-4 -1,-6l0 0c-1,-2 -1,-4 -1,-6l0 -1c-1,-2 -1,-4 -2,-6l0 0c0,-5 -1,-9 -1,-14l0 0c0,-2 -1,-4 -1,-6l0 -1c0,-2 0,-4 0,-6l0 -1c0,-2 -1,-4 -1,-6l0 -1c0,-2 0,-4 0,-6zm206 498l446 0c78,0 142,64 142,142l0 53 -446 0c-78,0 -142,-64 -142,-143l0 -52z"/>
   <path class="fil2" d="M5956 834l0 0c-1055,0 -1917,863 -1917,1917l0 3651 326 0 231 0c634,0 1152,-518 1152,-1151l0 -1512c-272,-221 -446,-558 -446,-936 0,-665 539,-1204 1204,-1204 458,0 856,255 1059,631l236 0c-229,-803 -971,-1396 -1845,-1396zm595 1753l0 6 -195 0 0 -6c0,-42 -34,-76 -76,-76l-62 0 -262 0c-78,0 -142,-64 -142,-142l0 -53 428 0c5,0 11,1 16,1 7,0 -23,-1 22,-1 45,0 156,37 205,95 1,1 2,2 3,3l2 2c1,1 2,2 3,4l1 1c1,1 2,2 3,3l1 2 2 4 1 1 3 4 1 1c1,2 2,3 3,4l1 2c1,2 2,3 2,4l1 1c1,2 2,3 3,5l0 1c1,1 2,3 3,4l1 2c0,1 1,3 2,4l0 1c1,2 2,4 3,5l1 2c0,1 1,3 2,4l0 1c1,2 2,4 2,5l1 1c0,2 1,3 2,5l0 1c1,2 2,4 2,6l0 0 0 0 1 0c0,2 1,4 2,6l0 1c0,2 1,3 2,5l0 1c0,2 1,4 2,6l0 0c0,2 1,4 1,6l0 1c1,2 1,4 2,6l0 0 0 0c0,2 1,4 1,6l0 1c1,2 1,4 2,6l0 1c0,2 0,4 1,6l0 0c0,4 1,9 1,13l1 1c0,2 0,4 0,6l0 1c0,2 0,4 1,6l0 1c0,2 0,4 0,6l0 0c0,3 0,5 0,7zm552 382l0 -70 0 -52 0 -79 0 -181c0,-42 34,-76 76,-76l260 0 236 0c23,94 35,192 35,292 0,579 -408,1063 -953,1178l0 418c0,380 311,690 690,690l361 0 65 0 0 -2338c0,-149 -17,-295 -50,-435l-204 0 -11 0 -429 0c-2,0 -4,0 -7,0l0 0c-2,1 -4,1 -6,1l-1 0c-2,0 -4,0 -6,0l-1 0c-2,0 -4,1 -6,1l-1 0c-4,0 -8,1 -13,1l0 1c-2,0 -4,0 -6,1l-1 0c-2,0 -4,0 -6,1l-1 0c-2,0 -4,1 -6,1l0 0 0 0c-2,1 -4,1 -6,2l-1 0c-2,1 -4,1 -6,2l0 0c-2,0 -4,1 -6,1l-1 1c-1,0 -3,1 -5,1l-1 1c-2,0 -4,1 -6,2l0 0 0 0 0 0c-2,1 -4,1 -6,2l-1 0c-1,1 -3,2 -5,3l-1 0c-1,1 -3,1 -5,2l-1 1c-1,0 -3,1 -4,2l-2 0c-1,1 -3,2 -5,3l-1 0c-1,1 -3,2 -4,3l-2 1c-1,0 -2,1 -4,2l-1 1c-2,1 -3,1 -5,2l0 1c-2,1 -3,2 -5,2l-2 2c-1,1 -2,1 -4,2l-1 1 -4 3 -1 1 -4 3 -1 1c-2,1 -3,2 -4,3l-1 0c-2,2 -3,3 -4,4l-2 1c-1,1 -2,2 -3,3 -58,50 -95,123 -95,205 0,8 1,15 1,22 0,6 -1,11 -1,16l0 344c0,41 -34,75 -75,75l-63 0 -52 0c-78,0 -142,65 -142,143l0 52 218 0c6,0 11,0 16,-1 8,1 15,1 23,1 82,0 155,-36 205,-94 1,-1 2,-2 3,-3l1 -2c1,-1 2,-3 3,-4l1 -1c1,-1 2,-2 3,-4l1 -1 3 -4 1 -1 2 -4 1 -2c1,-1 2,-2 3,-3l1 -2c1,-2 2,-3 3,-5l0 0c1,-2 2,-3 3,-5l1 -1c1,-2 1,-3 2,-5l1 -1c1,-1 2,-3 2,-4l1 -2c1,-1 2,-3 2,-4l1 -2c1,-1 2,-3 2,-5l1 -1c0,-1 1,-3 2,-5l0 0c1,-2 2,-4 2,-5l1 -2c0,-1 1,-3 2,-5l0 0 0 0 0 -1c1,-1 1,-3 2,-5l0 -1c1,-2 1,-4 2,-5l0 -1c1,-2 1,-4 2,-6l0 -1c1,-1 1,-3 2,-5l0 -1c0,-2 1,-4 1,-6l0 0 0 -1c1,-2 1,-4 2,-6l0 0c0,-2 1,-4 1,-6l0 -1c1,-2 1,-4 1,-6l0 0c1,-5 1,-9 2,-14l0 0c0,-2 0,-4 1,-6l0 -1c0,-2 0,-4 0,-6l0 -1c0,-2 0,-4 0,-6l0 -1c0,-2 0,-4 0,-6zm-205 498l-447 0c-78,0 -142,64 -142,142l0 53 446 0c79,0 143,-64 143,-143l0 -52z"/>
  </g>
  <path class="fil3" d="M8977 3605c-72,0 -131,-17 -178,-51 -46,-35 -71,-84 -74,-148l184 0c1,22 8,38 19,48 11,10 25,15 43,15 16,0 29,-4 39,-12 10,-8 16,-19 16,-33 0,-18 -9,-32 -26,-42 -17,-10 -45,-21 -83,-34 -40,-13 -73,-26 -98,-39 -25,-13 -46,-31 -65,-55 -18,-25 -28,-57 -28,-96 0,-40 10,-74 30,-102 20,-29 48,-50 83,-65 35,-15 75,-22 120,-22 72,0 130,17 173,50 43,34 66,82 69,143l-188 0c0,-19 -6,-33 -17,-43 -11,-9 -25,-14 -42,-14 -13,0 -23,4 -31,12 -9,7 -13,18 -13,32 0,12 5,22 14,31 9,8 20,15 34,22 13,6 33,14 60,23 39,13 71,27 97,40 25,13 47,32 66,55 18,24 28,54 28,91 0,37 -10,70 -28,99 -19,29 -45,53 -80,70 -35,17 -76,25 -124,25zm484 -626l0 620 -172 0 0 -620 172 0zm333 626c-72,0 -131,-17 -178,-51 -46,-35 -71,-84 -75,-148l184 0c2,22 9,38 20,48 11,10 25,15 43,15 16,0 29,-4 39,-12 10,-8 15,-19 15,-33 0,-18 -8,-32 -25,-42 -17,-10 -45,-21 -83,-34 -40,-13 -73,-26 -98,-39 -25,-13 -47,-31 -65,-55 -19,-25 -28,-57 -28,-96 0,-40 10,-74 30,-102 20,-29 48,-50 83,-65 35,-15 75,-22 120,-22 72,0 129,17 172,50 44,34 67,82 70,143l-188 0c-1,-19 -6,-33 -17,-43 -11,-9 -25,-14 -42,-14 -13,0 -23,4 -32,12 -8,7 -12,18 -12,32 0,12 5,22 14,31 9,8 20,15 34,22 13,6 33,14 59,23 40,13 72,27 98,40 25,13 47,32 66,55 18,24 27,54 27,91 0,37 -9,70 -27,99 -19,29 -45,53 -80,70 -35,17 -76,25 -124,25zm779 -626l0 137 -166 0 0 483 -172 0 0 -483 -164 0 0 -137 502 0zm237 138l0 101 198 0 0 131 -198 0 0 112 224 0 0 138 -397 0 0 -620 397 0 0 138 -224 0zm1034 -138l0 620 -173 0 0 -342 -117 342 -144 0 -118 -345 0 345 -172 0 0 -620 208 0 156 403 152 -403 208 0zm439 0l0 620 -172 0 0 -620 172 0zm673 620l-172 0 -230 -347 0 347 -172 0 0 -620 172 0 230 351 0 -351 172 0 0 620zm520 -620l0 137 -248 0 0 109 183 0 0 131 -183 0 0 243 -173 0 0 -620 421 0zm370 626c-58,0 -111,-13 -160,-41 -49,-27 -87,-65 -116,-113 -28,-49 -42,-103 -42,-164 0,-61 14,-116 42,-165 29,-48 67,-86 116,-113 49,-27 102,-40 160,-40 59,0 113,13 161,40 48,27 87,65 115,113 28,49 42,104 42,165 0,61 -14,115 -42,164 -28,48 -67,86 -116,113 -48,28 -102,41 -160,41zm0 -160c44,0 79,-14 105,-43 25,-29 38,-67 38,-115 0,-50 -13,-89 -38,-117 -26,-29 -61,-43 -105,-43 -44,0 -79,14 -104,43 -26,28 -38,67 -38,117 0,48 12,87 38,115 25,29 60,43 104,43zm710 154l-124 -229 -18 0 0 229 -173 0 0 -620 272 0c50,0 93,8 127,25 35,18 61,42 79,72 17,30 26,64 26,101 0,43 -12,80 -35,112 -23,32 -57,54 -101,68l139 242 -192 0zm-142 -347l85 0c24,0 41,-5 53,-16 12,-12 18,-28 18,-49 0,-20 -6,-36 -18,-47 -12,-11 -30,-17 -53,-17l-85 0 0 129zm1134 -273l0 620 -173 0 0 -342 -117 342 -144 0 -118 -345 0 345 -173 0 0 -620 209 0 156 403 152 -403 208 0zm491 519l-220 0 -34 101 -181 0 226 -620 199 0 225 620 -182 0 -33 -101zm-43 -132l-67 -201 -66 201 133 0zm549 239c-72,0 -132,-17 -178,-51 -46,-35 -71,-84 -75,-148l184 0c2,22 8,38 20,48 11,10 25,15 43,15 16,0 29,-4 39,-12 10,-8 15,-19 15,-33 0,-18 -8,-32 -25,-42 -17,-10 -45,-21 -83,-34 -40,-13 -73,-26 -98,-39 -25,-13 -47,-31 -65,-55 -19,-25 -28,-57 -28,-96 0,-40 10,-74 30,-102 20,-29 48,-50 83,-65 35,-15 75,-22 119,-22 73,0 130,17 173,50 44,34 67,82 69,143l-187 0c-1,-19 -6,-33 -17,-43 -11,-9 -25,-14 -42,-14 -13,0 -23,4 -32,12 -8,7 -12,18 -12,32 0,12 5,22 14,31 9,8 20,15 34,22 13,6 33,14 59,23 40,13 72,27 98,40 25,13 47,32 66,55 18,24 27,54 27,91 0,37 -9,70 -27,99 -19,29 -45,53 -80,70 -35,17 -77,25 -124,25zm484 -626l0 620 -172 0 0 -620 172 0zm-7562 914l0 621 -172 0 0 -342 -117 342 -144 0 -118 -345 0 345 -173 0 0 -621 209 0 155 404 153 -404 207 0zm397 627c-59,0 -112,-14 -161,-41 -48,-27 -87,-65 -115,-113 -29,-49 -43,-103 -43,-165 0,-61 14,-115 43,-164 28,-48 67,-86 115,-113 49,-27 102,-40 161,-40 58,0 112,13 160,40 49,27 87,65 115,113 28,49 42,103 42,164 0,62 -14,116 -42,165 -28,48 -67,86 -115,113 -49,27 -102,41 -160,41zm0 -160c44,0 78,-14 104,-43 25,-29 38,-67 38,-116 0,-49 -13,-88 -38,-116 -26,-29 -60,-43 -104,-43 -45,0 -80,14 -105,43 -25,28 -38,67 -38,116 0,49 13,88 38,116 25,29 60,43 105,43zm969 154l-172 0 -230 -347 0 347 -172 0 0 -621 172 0 230 352 0 -352 172 0 0 621zm272 -621l0 621 -173 0 0 -621 173 0zm566 0l0 138 -166 0 0 483 -172 0 0 -483 -164 0 0 -138 502 0zm361 627c-58,0 -111,-14 -160,-41 -49,-27 -87,-65 -116,-113 -28,-49 -42,-103 -42,-165 0,-61 14,-115 42,-164 29,-48 67,-86 116,-113 49,-27 102,-40 160,-40 59,0 112,13 161,40 48,27 87,65 115,113 28,49 42,103 42,164 0,62 -14,116 -42,165 -28,48 -67,86 -116,113 -48,27 -102,41 -160,41zm0 -160c44,0 79,-14 105,-43 25,-29 38,-67 38,-116 0,-49 -13,-88 -38,-116 -26,-29 -61,-43 -105,-43 -44,0 -79,14 -104,43 -26,28 -38,67 -38,116 0,49 12,88 38,116 25,29 60,43 104,43zm710 154l-124 -229 -18 0 0 229 -173 0 0 -621 272 0c50,0 93,9 127,26 35,18 61,41 79,72 17,30 26,64 26,101 0,43 -12,80 -35,112 -23,32 -57,54 -102,68l140 242 -192 0zm-142 -347l85 0c24,0 41,-5 53,-17 12,-11 18,-27 18,-48 0,-20 -6,-36 -18,-47 -12,-12 -30,-17 -53,-17l-85 0 0 129zm582 -274l0 621 -173 0 0 -621 173 0zm673 621l-172 0 -230 -347 0 347 -173 0 0 -621 173 0 230 352 0 -352 172 0 0 621zm495 -416c-10,-17 -24,-29 -41,-38 -17,-9 -38,-13 -61,-13 -44,0 -78,14 -103,42 -25,28 -37,66 -37,113 0,54 13,94 40,122 26,28 65,42 116,42 61,0 104,-27 130,-82l-174 0 0 -124 323 0 0 167c-14,33 -34,64 -60,93 -26,29 -59,52 -99,71 -40,18 -85,27 -136,27 -63,0 -118,-13 -165,-40 -48,-26 -85,-64 -111,-111 -26,-48 -39,-103 -39,-165 0,-61 13,-115 39,-163 26,-48 63,-85 110,-112 48,-26 103,-40 165,-40 78,0 142,19 193,57 51,37 83,88 95,154l-185 0zm831 315l-220 0 -34 101 -181 0 226 -621 199 0 225 621 -182 0 -33 -101zm-43 -132l-67 -201 -66 201 133 0zm487 101l193 0 0 132 -365 0 0 -621 172 0 0 489zm652 31l-220 0 -33 101 -181 0 226 -621 199 0 225 621 -182 0 -34 -101zm-43 -132l-67 -201 -66 201 133 0zm783 -388l0 138 -166 0 0 483 -172 0 0 -483 -164 0 0 -138 502 0zm956 0l0 621 -172 0 0 -342 -117 342 -145 0 -117 -345 0 345 -173 0 0 -621 209 0 155 404 153 -404 207 0zm272 139l0 101 198 0 0 131 -198 0 0 112 224 0 0 138 -397 0 0 -621 397 0 0 139 -224 0zm555 -139c65,0 122,13 171,40 49,26 87,62 113,109 27,47 40,101 40,161 0,60 -14,113 -40,160 -27,47 -65,84 -114,111 -49,27 -106,40 -170,40l-246 0 0 -621 246 0zm-13 469c50,0 90,-14 119,-42 28,-27 43,-66 43,-117 0,-51 -15,-90 -43,-118 -29,-28 -69,-42 -119,-42l-60 0 0 319 60 0zm587 -469l0 621 -173 0 0 -621 173 0zm332 627c-72,0 -131,-17 -177,-51 -47,-35 -72,-84 -75,-148l184 0c2,22 8,38 19,48 11,10 26,15 43,15 16,0 29,-4 39,-12 11,-8 16,-19 16,-33 0,-18 -9,-32 -26,-42 -17,-10 -44,-22 -82,-34 -41,-13 -74,-26 -99,-39 -24,-13 -46,-31 -65,-56 -18,-24 -27,-56 -27,-95 0,-40 10,-74 30,-103 20,-28 47,-50 82,-64 36,-15 75,-22 120,-22 72,0 130,17 173,50 43,34 66,81 69,143l-187 0c-1,-19 -7,-33 -18,-43 -10,-9 -24,-14 -41,-14 -13,0 -24,4 -32,12 -8,7 -12,18 -12,32 0,12 4,22 13,31 9,8 21,15 34,22 14,6 34,13 60,23 39,13 72,27 97,40 26,13 48,32 66,55 19,24 28,54 28,91 0,37 -9,70 -28,99 -18,29 -45,53 -80,70 -35,17 -76,25 -124,25zm-10729 915c-72,0 -131,-17 -178,-51 -46,-35 -71,-84 -74,-148l184 0c1,22 8,38 19,48 11,10 25,15 43,15 16,0 29,-4 39,-12 10,-8 16,-19 16,-33 0,-18 -9,-33 -26,-43 -17,-10 -45,-21 -83,-33 -40,-13 -73,-27 -98,-39 -25,-13 -46,-31 -65,-56 -18,-24 -28,-56 -28,-95 0,-40 10,-74 30,-103 20,-28 48,-50 83,-64 35,-15 75,-22 120,-22 72,0 130,17 173,50 43,34 66,81 69,142l-188 0c0,-18 -6,-32 -17,-42 -11,-9 -25,-14 -42,-14 -13,0 -23,4 -31,12 -9,7 -13,18 -13,32 0,12 5,22 14,30 9,9 20,16 34,22 13,7 33,14 60,24 39,13 71,27 97,40 25,13 47,32 66,55 18,24 28,54 28,91 0,36 -10,70 -28,99 -19,29 -45,52 -80,70 -35,17 -76,25 -124,25zm779 -627l0 138 -165 0 0 483 -173 0 0 -483 -164 0 0 -138 502 0zm237 139l0 101 198 0 0 131 -198 0 0 112 224 0 0 138 -397 0 0 -621 397 0 0 139 -224 0zm624 482l-123 -229 -19 0 0 229 -172 0 0 -621 272 0c50,0 92,9 126,26 35,18 61,41 79,72 17,30 26,64 26,101 0,43 -11,80 -35,112 -23,32 -57,54 -101,68l140 242 -193 0zm-142 -347l86 0c23,0 41,-5 52,-17 12,-11 18,-27 18,-48 0,-20 -6,-36 -18,-47 -12,-12 -29,-17 -52,-17l-86 0 0 129zm582 -274l0 621 -172 0 0 -621 172 0zm271 489l193 0 0 132 -365 0 0 -621 172 0 0 489zm673 -489c66,0 123,13 172,40 49,26 86,62 113,109 26,47 39,101 39,161 0,60 -13,113 -40,160 -26,47 -64,84 -113,111 -49,27 -106,40 -171,40l-245 0 0 -621 245 0zm-13 469c51,0 90,-14 119,-42 29,-27 43,-66 43,-117 0,-51 -14,-90 -43,-118 -29,-28 -68,-42 -119,-42l-60 0 0 319 60 0zm807 51l-220 0 -33 101 -181 0 226 -621 199 0 225 621 -182 0 -34 -101zm-43 -132l-67 -201 -66 201 133 0zm890 233l-172 0 -230 -347 0 347 -173 0 0 -621 173 0 230 352 0 -352 172 0 0 621zm634 0l-195 -272 0 272 -172 0 0 -621 172 0 0 268 193 -268 199 0 -228 301 239 320 -208 0zm664 -101l-220 0 -33 101 -181 0 226 -621 199 0 225 621 -182 0 -34 -101zm-43 -132l-67 -201 -66 201 133 0zm561 -388c65,0 122,13 171,40 49,26 87,62 113,109 27,47 40,101 40,161 0,60 -14,113 -40,160 -27,47 -65,84 -114,111 -49,27 -106,40 -170,40l-246 0 0 -621 246 0zm-13 469c50,0 90,-14 119,-42 28,-27 43,-66 43,-117 0,-51 -15,-90 -43,-118 -29,-28 -69,-42 -119,-42l-60 0 0 319 60 0zm807 51l-220 0 -34 101 -181 0 226 -621 199 0 225 621 -182 0 -33 -101zm-43 -132l-67 -201 -66 201 133 0zm487 101l193 0 0 132 -365 0 0 -621 172 0 0 489zm429 -489l0 360c0,34 8,60 23,78 16,18 39,27 71,27 32,0 56,-9 72,-28 16,-18 24,-44 24,-77l0 -360 173 0 0 360c0,57 -12,106 -37,146 -24,40 -56,70 -98,91 -41,20 -87,30 -137,30 -51,0 -96,-10 -136,-30 -39,-21 -70,-51 -93,-91 -22,-39 -34,-88 -34,-146l0 -360 172 0zm850 520l-220 0 -33 101 -182 0 227 -621 199 0 225 621 -182 0 -34 -101zm-43 -132l-67 -201 -66 201 133 0zm629 233l-123 -229 -18 0 0 229 -173 0 0 -621 272 0c50,0 92,9 127,26 35,18 61,41 78,72 18,30 27,64 27,101 0,43 -12,80 -35,112 -23,32 -57,54 -102,68l140 242 -193 0zm-141 -347l85 0c24,0 41,-5 53,-17 12,-11 17,-27 17,-48 0,-20 -6,-36 -18,-47 -12,-12 -29,-17 -52,-17l-85 0 0 129zm643 353c-72,0 -131,-17 -178,-51 -46,-35 -71,-84 -75,-148l184 0c2,22 9,38 20,48 11,10 25,15 43,15 16,0 29,-4 39,-12 10,-8 15,-19 15,-33 0,-18 -8,-33 -25,-43 -17,-10 -45,-21 -83,-33 -40,-13 -73,-27 -98,-39 -25,-13 -47,-31 -65,-56 -19,-24 -28,-56 -28,-95 0,-40 10,-74 30,-103 20,-28 48,-50 83,-64 35,-15 75,-22 120,-22 72,0 129,17 173,50 43,34 66,81 69,142l-188 0c0,-18 -6,-32 -17,-42 -11,-9 -25,-14 -42,-14 -13,0 -23,4 -31,12 -9,7 -13,18 -13,32 0,12 5,22 14,30 9,9 20,16 34,22 13,7 33,14 60,24 39,13 71,27 97,40 25,13 47,32 66,55 18,24 28,54 28,91 0,36 -10,70 -28,99 -19,29 -45,52 -80,70 -35,17 -76,25 -124,25zm704 -107l-220 0 -33 101 -182 0 227 -621 199 0 225 621 -182 0 -34 -101zm-43 -132l-67 -201 -66 201 133 0z"/>
 </g>
</svg>
